# xmcd
#
# Track frame offsets:
#	150
#	14116
#	26636
#	43321
#	56058
#	78068
#	93466
#	110665
#	129758
#	144269
#	162514
#	181755
#	201263
#	212438
#	234386
#	260486
#	280974
#	299648
#	326138
#
# Disc length: 4755 seconds
#
# Revision: 1
# Processed by: cddbd v1.5.2PL0 Copyright (c) Steve Scherf et al.
# Submitted via: audiograbber 1.83.01
#
DISCID=1c129113
DTITLE=Various Artist - Roots and New For Blues Lovers 2008
DYEAR=2008
DGENRE=Blues
TTITLE0=Rufus McKenzie - Slavery time blues
TTITLE1=Leon Bibb - Ol' man river
TTITLE2=Marie Knight - Samson and Delilah
TTITLE3=Carolina Chocolate Drops - Don't get trouble in your mind
TTITLE4=Gashouse Dave - See that my grave is kept clean
TTITLE5=Eric Bibb - Get on board
TTITLE6=Bill Perry - I don't know nothin' 'bout love
TTITLE7=David Gogo - 300 pounds shoes
TTITLE8=Duke Robillard - World of blues
TTITLE9=Popa Chubby - I don't live today
TTITLE10=Tommy Castro (& Coco Montoya) - A good fool is hard to find
TTITLE11=Monster Mike Welch - My baby loves me
TTITLE12=Beverly Guitar Watkins - The right string but the wrong yoyo
TTITLE13=Nico Wayne Toussaint - Ain't no need
TTITLE14=Pat The White - Promised land
TTITLE15=Fred Chapellier (& Billy Price) - Anickel and a nail
TTITLE16=Leadfoot Rivet - I was all wrong
TTITLE17=Captain Luke (& Cool John Ferguson) - Serve me right
TTITLE18=Data track - Data track
EXTD=
EXTT0=
EXTT1=
EXTT2=
EXTT3=
EXTT4=
EXTT5=
EXTT6=
EXTT7=
EXTT8=
EXTT9=
EXTT10=
EXTT11=
EXTT12=
EXTT13=
EXTT14=
EXTT15=
EXTT16=
EXTT17=
EXTT18=
PLAYORDER=
